<svg width="1466" height="2897" viewBox="0 0 1466 2897" fill="none" xmlns="http://www.w3.org/2000/svg">
<g clip-path="url(#clip0_63_62)">
<path d="M297.347 1178.54L295.334 1234.84H344.814C360.307 1137.24 374.227 1041.24 367.347 979.372C364.467 953.438 361.454 928.252 358.454 903.918C358.427 903.918 358.414 903.932 358.4 903.932C332.787 1008.72 297.347 1178.54 297.347 1178.54ZM25.627 1234.84H153.72C152.147 1209.9 150.6 1189.21 149.027 1176.62C141.374 1115.42 227.36 640.092 270.454 616.612C287.68 607.225 303.707 599.931 317.174 594.358C292.654 535.598 336.24 510.572 354.64 491.918C375.214 471.065 380.76 442.225 368.987 395.478C351.774 327.092 369.947 279.451 409.174 224.491C428.574 197.291 436.494 161.078 439.334 143.732C439.347 129.572 440.227 117.372 441.854 108.812C448.4 74.2915 473.147 58.025 478.947 56.1183C484.747 54.1983 495.827 21.7715 520.72 13.1582C607.915 -17.0285 737.043 12.0248 762.06 27.8248V27.7983C762.06 27.7983 820.536 42.7182 844.452 87.6915C864.274 124.945 855.191 240.638 851.496 279.198C851.819 330.385 841.715 385.038 839.132 401.465C834.767 429.212 858.204 466.958 851.507 527.745C846.924 569.358 826.099 590.865 813.408 600.291C822.326 607.851 831.1 616.385 838.715 625.785C876.411 672.345 893.672 697.305 919.074 731.638C953.663 778.371 983 842.625 1001.98 849.665C1018.12 855.665 1094.99 857.305 1121.2 857.318C1132.1 857.332 1181.83 849.665 1219.45 845.252C1219.45 845.252 1219.69 848.158 1219.99 853.385C1232.6 850.865 1243.37 848.492 1246.15 847.198C1246.15 847.198 1247.86 826.212 1270.31 805.452C1292.75 784.678 1292.52 742.612 1300.57 742.985C1308.28 743.358 1316.42 760.678 1310.25 787.785C1310.29 787.798 1310.33 787.785 1310.38 787.798C1311.76 788.132 1312.72 789.251 1312.99 790.545C1324.17 788.278 1360 780.865 1372.29 776.545C1372.29 776.545 1415.12 734.132 1424.09 733.452C1432.36 732.838 1435.92 750.385 1428.5 762.385C1428.79 762.572 1429.02 762.838 1429.24 763.118C1435 758.398 1448.74 747.612 1454.2 747.185C1461.18 746.652 1468.23 760.118 1451.79 780.932C1451.79 780.932 1460.25 776.785 1463.97 784.518C1467.69 792.238 1459.04 796.932 1441.34 814.318C1441.34 814.318 1457.89 808.038 1462.26 812.705C1466.62 817.371 1467.96 821.718 1455.8 832.958C1443.64 844.198 1424.03 862.745 1393.34 878.705C1375.39 888.025 1284.6 912.891 1259.9 917.478L1220.99 939.211C1220.69 951.185 1220.21 963.998 1219.45 977.691C1219.21 982.038 1044.24 1058.84 998.384 1058.22C953.203 1057.6 899.628 994.025 876.702 972.745C860.718 957.891 848.454 939.345 831.179 920.838C812.14 978.491 820.203 1061.34 825.576 1152.64C825.576 1152.64 856.558 1292.74 876.702 1423.1L854.868 1419.92C855.131 1422.28 855.392 1424.76 855.655 1427.21C855.763 1428.21 855.87 1429.18 855.978 1430.2C856.598 1436.06 857.214 1442.2 857.822 1448.56C857.944 1449.82 858.064 1451.13 858.186 1452.42C858.81 1459.06 859.43 1465.89 860.035 1473.06C860.035 1473.08 860.036 1473.09 860.038 1473.12C875.795 1659.88 884.184 2029.34 829.951 2716.41L798.919 2718.38C806.2 2728.73 845.752 2784.05 876.224 2808.42H876.222C893.811 2822.12 918.739 2839.97 949.184 2857.61C949.184 2857.61 976.127 2862.65 960.974 2882.89C945.822 2903.08 799.288 2906.46 733.636 2849.18L730.254 2892.72C730.254 2892.72 707.36 2896.36 707.024 2886.28C706.744 2878 699.41 2830.69 703.42 2780.38C703.419 2780.38 703.418 2780.38 703.416 2780.38C703.416 2780.38 706.306 2748.81 707.334 2724.18L655.022 2727.5C636.231 2584.22 609.012 1871.33 596.975 1734.61C596.699 1734.64 596.442 1734.72 596.155 1734.7C596.131 1734.69 596.114 1734.68 596.09 1734.68C588.778 1803.04 498.267 2649.13 489.294 2727.5L450.107 2727.16C464.334 2746.7 495.88 2788.24 521.12 2808.42C538.707 2822.12 563.64 2839.97 594.082 2857.61C594.082 2857.61 621.024 2862.65 605.871 2882.89C590.719 2903.08 444.187 2906.46 378.534 2849.18L375.147 2892.72C375.147 2892.72 352.254 2896.36 351.92 2886.28C351.64 2878 344.307 2830.69 348.32 2780.38C348.32 2780.38 348.32 2780.38 348.307 2780.38C348.307 2780.38 351.04 2750.56 352.134 2726.28L316.4 2725.96C316.4 2725.96 297.174 1913.12 303.534 1621.7H281.84C281.014 1629.14 279.654 1635.21 277.48 1638.1C269.014 1649.38 250.76 1641.72 250.76 1641.72C238.134 1649.1 221.027 1638.68 221.027 1638.68C205.987 1645.84 191.867 1638.1 191.867 1638.1C184.347 1639.04 171.734 1640.74 169.294 1623.98C169.187 1623.26 169.12 1622.45 169.04 1621.7H25.627C11.4804 1621.7 0.00034776 1610.22 0.00034776 1596.08V1260.46C0.00034776 1246.32 11.4804 1234.84 25.627 1234.84Z" fill="#F9A882"/>
<path d="M303.534 1621.7H513.24C527.374 1621.7 538.854 1610.22 538.854 1596.08V1412.86L591.427 1405.74L591.94 1326.38L610.423 1326.26H674.118L688.446 1395.62L814.483 1414.02L824.344 1415.46L854.84 1419.92C855.111 1422.34 855.384 1424.68 855.655 1427.21C855.763 1428.21 855.87 1429.18 855.978 1430.2C856.598 1436.06 857.214 1442.2 857.822 1448.56C857.944 1449.82 858.064 1451.13 858.186 1452.42C858.81 1459.06 859.43 1465.89 860.035 1473.06C860.035 1473.08 860.036 1473.09 860.038 1473.12C875.795 1659.88 884.184 2029.34 829.951 2716.41L798.919 2718.38L707.334 2724.18L655.022 2727.5C636.231 2584.22 609.012 1871.33 596.975 1734.61C596.699 1734.64 596.442 1734.72 596.155 1734.7C596.131 1734.69 596.114 1734.68 596.09 1734.68C588.778 1803.04 498.267 2649.13 489.294 2727.5L450.107 2727.16L352.134 2726.28L316.4 2725.96C316.4 2725.96 297.174 1913.12 303.534 1621.7Z" fill="#3C4167"/>
<path d="M610.423 1326.26H674.117L688.445 1395.62L814.483 1414.02C819.948 1434.22 826.144 1456.81 832.363 1478.85C786.609 1488.68 741.368 1501.24 696.505 1514.44C678.619 1519.69 660.743 1524.86 642.856 1529.92C643.959 1521.06 644.889 1511.85 645.641 1502.37C648.071 1471.57 648.768 1438.66 648.769 1410.84C648.769 1372.53 647.44 1343.89 647.437 1343.85H647.436C647.32 1341.33 645.181 1339.37 642.66 1339.49C640.14 1339.61 638.191 1341.74 638.307 1344.26C638.307 1344.29 638.636 1351.37 638.967 1363.25C639.297 1375.13 639.629 1391.8 639.629 1410.84C639.629 1438.5 638.929 1471.21 636.528 1501.66C635.691 1512.36 634.619 1522.74 633.311 1532.56C629.773 1533.56 626.229 1534.52 622.689 1535.5L614.989 1343.88C614.888 1341.36 612.761 1339.38 610.239 1339.49C607.717 1339.6 605.755 1341.72 605.856 1344.24L613.641 1538.01C588.775 1544.86 563.867 1551.57 538.854 1557.9V1412.86L591.427 1405.74L591.94 1326.38L610.423 1326.26Z" fill="#2F3350"/>
<path d="M824.344 1415.46L854.84 1419.92C855.111 1422.34 855.384 1424.68 855.655 1427.21C855.762 1428.21 855.87 1429.18 855.978 1430.2C856.598 1436.06 857.214 1442.2 857.822 1448.56C857.944 1449.82 858.064 1451.13 858.186 1452.42C858.81 1459.06 859.43 1465.89 860.035 1473.06C860.035 1473.09 860.036 1473.09 860.039 1473.12C853.78 1474.28 847.572 1475.7 841.335 1476.98C835.456 1456.17 829.602 1434.85 824.344 1415.46Z" fill="#2F3350"/>
<path d="M480.987 2678.78H326.72C324 2678.78 321.8 2676.58 321.8 2673.86C321.8 2671.14 324 2668.94 326.72 2668.94H480.987C483.707 2668.94 485.907 2671.14 485.907 2673.86C485.907 2676.58 483.707 2678.78 480.987 2678.78Z" fill="#22263F"/>
<path d="M666.888 2680.13L827.077 2668.1C829.785 2667.9 832.145 2669.93 832.349 2672.64C832.552 2675.34 830.521 2677.7 827.813 2677.9L667.624 2689.93C664.916 2690.13 662.556 2688.1 662.353 2685.4C662.149 2682.69 664.18 2680.33 666.888 2680.13Z" fill="#22263F"/>
<path d="M824.344 1415.46C829.602 1434.85 835.456 1456.17 841.335 1476.98C850.126 1508.13 858.927 1538.05 865.684 1558.22C866.486 1560.62 865.195 1563.21 862.8 1564.01C860.407 1564.81 857.818 1563.52 857.016 1561.13C850.14 1540.58 841.232 1510.28 832.363 1478.85C826.144 1456.81 819.948 1434.22 814.483 1414.02L824.344 1415.46Z" fill="#222537"/>
<path d="M592.024 1729.73L605.411 1584.65H545.88C543.36 1584.65 541.307 1582.6 541.307 1580.08C541.307 1577.56 543.36 1575.5 545.88 1575.5H615.149L613.641 1538.01L605.856 1344.24C605.755 1341.72 607.717 1339.6 610.239 1339.49C612.761 1339.38 614.888 1341.36 614.989 1343.88L622.689 1535.5L624.297 1575.5H624.357C628.147 1564.04 631.093 1549.21 633.311 1532.56C634.619 1522.74 635.691 1512.36 636.528 1501.66C638.929 1471.21 639.629 1438.5 639.629 1410.84C639.629 1391.8 639.297 1375.13 638.967 1363.25C638.636 1351.37 638.307 1344.29 638.307 1344.26C638.191 1341.74 640.14 1339.61 642.66 1339.49C645.181 1339.37 647.32 1341.33 647.436 1343.85H647.437C647.44 1343.89 648.769 1372.53 648.769 1410.84C648.768 1438.66 648.071 1471.57 645.641 1502.37C644.889 1511.85 643.959 1521.06 642.856 1529.92C640.72 1547.09 637.852 1562.74 633.957 1575.5H675.321C677.847 1575.5 679.892 1577.56 679.892 1580.08C679.892 1582.6 677.847 1584.65 675.321 1584.65C675.321 1584.65 646.444 1584.65 614.591 1584.65L601.127 1730.57C600.92 1732.8 599.124 1734.41 596.975 1734.61C596.699 1734.64 596.441 1734.72 596.155 1734.7C596.131 1734.69 596.113 1734.68 596.089 1734.68C593.612 1734.41 591.795 1732.21 592.024 1729.73Z" fill="#222537"/>
<path d="M270.453 616.612C287.68 607.225 303.707 599.931 317.173 594.358C339.6 585.105 354.96 580.652 357.053 579.332C357.08 579.318 357.133 579.398 357.16 579.398C359.56 578.145 362.12 577.158 364.96 576.691L527.027 530.145C526.987 530.372 526.947 530.558 526.907 530.785C526.907 530.785 527.64 533.985 529.253 538.932C567.48 681.918 591.955 1324.29 591.955 1324.29L591.94 1326.38L591.427 1405.74L538.853 1412.86V1260.46C538.853 1246.32 527.373 1234.84 513.24 1234.84H344.813C360.307 1137.24 374.227 1041.24 367.347 979.372C364.467 953.438 361.453 928.252 358.453 903.918C358.427 903.918 358.413 903.932 358.4 903.932C332.787 1008.72 297.347 1178.54 297.347 1178.54L295.333 1234.84L285.76 1502.33C282.507 1503.26 279.4 1504.02 276.293 1504.8C231.707 1515.85 202.12 1510.74 187.813 1506.32C181.12 1504.24 177.72 1502.33 177.72 1502.33C166.493 1491.69 159.827 1331.14 153.72 1234.84C152.147 1209.9 150.6 1189.21 149.027 1176.62C141.373 1115.42 227.36 640.092 270.453 616.612Z" fill="#2B304D"/>
<path d="M503.094 550.598C503.294 549.011 504.734 547.891 506.32 548.091C507.907 548.291 509.027 549.745 508.827 551.331L479.694 781.665L550.52 813.438L510.72 847.225L567.56 981.051C568.187 982.531 567.507 984.225 566.04 984.851C564.56 985.478 562.867 984.785 562.24 983.318L503.72 845.571L539.787 814.958L473.414 785.185L503.094 550.598Z" fill="#0E1117"/>
<path d="M358.16 903.945C356.64 903.451 355.814 901.825 356.307 900.291C372.36 850.838 378.054 805.625 378.054 766.278C378.054 717.625 369.334 677.958 360.614 650.478C356.254 636.745 351.907 626.051 348.64 618.811C347.014 615.198 345.667 612.438 344.72 610.598C344.254 609.678 343.88 608.985 343.64 608.531L343.28 607.865C342.48 606.478 342.974 604.718 344.36 603.918C345.747 603.131 347.52 603.625 348.307 605.011C348.454 605.291 383.84 667.571 383.84 766.278C383.84 806.171 378.054 852.025 361.814 902.078C361.347 903.505 359.88 904.225 358.454 903.918C358.427 903.918 358.414 903.931 358.4 903.918C358.32 903.905 358.24 903.971 358.16 903.945Z" fill="#0E1117"/>
<path d="M305.467 1046.65C293.161 1021.14 225.747 878.012 225.747 877.998C225.067 876.558 225.694 874.825 227.134 874.145C228.574 873.465 230.307 874.092 230.987 875.532C230.987 875.558 235.201 884.478 241.707 898.305C261.241 939.758 301.481 1025.08 310.681 1044.14C311.374 1045.58 310.774 1047.3 309.334 1048C307.894 1048.69 306.161 1048.09 305.467 1046.65Z" fill="#0E1117"/>
<path d="M298.107 1105.73C298.547 1107.28 297.654 1108.88 296.12 1109.3C294.587 1109.74 292.987 1108.85 292.547 1107.32C287.694 1090.18 268.534 1037.5 250.654 989.318C241.707 965.198 233.067 942.171 226.654 925.171C220.254 908.171 216.107 897.238 216.094 897.211C215.534 895.718 216.28 894.038 217.774 893.478C219.267 892.905 220.934 893.665 221.507 895.158C221.507 895.158 238.174 939.051 256.067 987.305C273.987 1035.58 293.094 1088.08 298.107 1105.73Z" fill="#0E1117"/>
<path d="M529.253 538.931C535.507 558.198 555.773 605.318 604.757 606.425C667.66 607.825 673.169 523.491 673.169 523.491C673.169 523.491 708.836 711.505 704.388 804.078C699.944 896.638 673.711 1324.29 673.711 1324.29L674.117 1326.26H610.423L591.94 1326.38L591.955 1324.29C591.955 1324.29 567.48 681.918 529.253 538.931Z" fill="#B1CDED"/>
<path d="M636.848 1303.02C635.27 1302.77 634.195 1301.29 634.448 1299.7C640.847 1259.77 643.347 1203.81 643.343 1141.24C643.344 1034.13 636.051 907.585 628.756 807.838C625.11 757.958 621.462 714.785 618.726 684.078C617.358 668.718 616.219 656.491 615.422 648.091C614.623 639.691 614.17 635.158 614.168 635.145C614.01 633.558 615.17 632.131 616.759 631.971C618.348 631.811 619.766 632.971 619.924 634.571C619.927 634.611 649.126 926.531 649.128 1141.24C649.126 1203.98 646.644 1260.12 640.162 1300.62C639.908 1302.2 638.426 1303.28 636.848 1303.02Z" fill="#6E91BA"/>
<path d="M690.528 687.478C689.419 688.638 687.588 688.665 686.437 687.558L617.357 620.918L560.307 694.478C559.32 695.745 557.507 695.971 556.24 694.985C554.987 694.011 554.747 692.198 555.733 690.931L616.736 612.291L690.455 683.385C691.604 684.505 691.637 686.331 690.528 687.478Z" fill="#6E91BA"/>
<path d="M673.169 523.491C688.731 528.558 719.156 541.491 756.387 562.758V562.745C756.387 562.745 785.606 576.718 813.408 600.291C822.326 607.851 831.1 616.385 838.715 625.785C876.411 672.345 893.672 697.305 919.074 731.638C953.663 778.371 983 842.625 1001.98 849.665C1018.12 855.665 1094.99 857.305 1121.2 857.318C1132.1 857.332 1181.83 849.665 1219.45 845.252C1219.45 845.252 1219.69 848.158 1219.99 853.385C1220.78 867.065 1222.05 897.478 1220.99 939.211C1220.69 951.185 1220.21 963.998 1219.45 977.691C1219.21 982.038 1044.24 1058.84 998.384 1058.22C953.203 1057.6 899.628 994.025 876.702 972.745C860.718 957.891 848.454 939.345 831.179 920.838C812.14 978.491 820.203 1061.34 825.576 1152.64C825.576 1152.64 856.558 1292.74 876.702 1423.1L854.868 1419.92H854.84L824.344 1415.46L814.483 1414.02L688.446 1395.62L674.118 1326.26L673.711 1324.29C673.711 1324.29 699.944 896.638 704.388 804.078C708.836 711.505 673.169 523.491 673.169 523.491Z" fill="#2B304D"/>
<path d="M1018.12 865.692C1018.05 865.758 988.722 887.518 973.074 904.452C968.911 908.972 964.428 916.252 959.816 924.785C955.223 933.318 950.578 943.052 946.414 952.252C938.088 970.665 931.699 986.958 931.687 986.985C931.104 988.478 931.836 990.158 933.324 990.745C934.812 991.318 936.491 990.585 937.074 989.105C937.076 989.092 937.963 986.838 939.515 983.025C941.067 979.212 943.28 973.865 945.918 967.732C951.19 955.465 958.164 940.052 964.91 927.532C969.387 919.212 973.832 912.131 977.324 908.371C985.415 899.598 997.702 889.185 1007.29 881.465C1003.3 887.558 998.536 895.052 993.602 903.318C981.266 924.025 968.082 948.892 964.7 966.985C962.54 978.692 961.818 989.105 961.818 997.785C961.819 1015.16 964.703 1025.61 964.758 1025.81C965.186 1027.36 966.779 1028.25 968.319 1027.82C969.858 1027.4 970.76 1025.8 970.331 1024.26L970.23 1023.86L969.928 1022.56C969.675 1021.4 969.332 1019.65 968.988 1017.37C968.299 1012.82 967.603 1006.14 967.603 997.785C967.603 989.425 968.299 979.372 970.39 968.038C972.642 955.705 980.486 938.558 989.434 922.225C998.376 905.865 1008.4 890.198 1014.98 880.292C1019.36 873.705 1022.2 869.692 1022.2 869.678L1032.69 854.852L1018.12 865.692ZM961.418 812.852C961.379 812.865 897.006 837.251 875.502 847.038C874.048 847.705 873.407 849.412 874.068 850.865C874.732 852.318 876.447 852.958 877.9 852.305C888.406 847.518 909.856 838.972 928.604 831.665C947.364 824.358 963.432 818.265 963.467 818.252C964.962 817.692 965.714 816.025 965.147 814.532C964.582 813.038 962.912 812.278 961.418 812.852ZM848.602 905.278C847.268 906.158 846.9 907.945 847.78 909.278C848.66 910.612 850.454 910.985 851.787 910.105L955.107 841.958C956.439 841.078 956.808 839.292 955.928 837.958C955.05 836.625 953.255 836.252 951.92 837.132L848.602 905.278ZM1220.99 939.212C1220.69 951.185 1220.21 963.998 1219.45 977.692C1219.21 982.038 1044.24 1058.84 998.384 1058.22C953.203 1057.6 899.628 994.025 876.702 972.745C860.718 957.892 848.454 939.345 831.179 920.838C832.954 915.465 834.875 910.238 837.146 905.318C862.315 850.785 865.842 827.305 856.816 785.998C837.754 698.772 796.65 587.518 796.65 587.518C782.643 578.265 769.12 570.025 756.387 562.758C756.387 562.758 785.606 576.718 813.408 600.292C822.326 607.852 831.1 616.385 838.715 625.785C876.411 672.345 893.672 697.305 919.074 731.638C953.663 778.372 983 842.625 1001.98 849.665C1018.12 855.665 1094.99 857.305 1121.2 857.332C1132.1 857.332 1181.83 849.665 1219.45 845.252C1219.45 845.252 1219.69 848.158 1219.99 853.385C1220.78 867.065 1222.05 897.478 1220.99 939.212Z" fill="#232843"/>
<path d="M776.654 766.545L729.287 796.225L759.666 839.171L708.014 965.425C707.408 966.891 705.72 967.611 704.24 966.998C702.762 966.398 702.054 964.705 702.658 963.225L753.108 839.918L721.031 794.571L769.564 764.158L685.74 542.585C685.176 541.091 685.928 539.425 687.423 538.865C688.918 538.291 690.586 539.051 691.151 540.545H691.152L776.654 766.545Z" fill="#0E1117"/>
<path d="M1014.98 880.291C1008.4 890.198 998.376 905.864 989.434 922.224C980.486 938.558 972.642 955.705 970.39 968.038C968.299 979.371 967.603 989.424 967.603 997.784C967.603 1006.14 968.299 1012.82 968.988 1017.37C969.332 1019.65 969.675 1021.4 969.928 1022.56L970.23 1023.86L970.331 1024.26C970.76 1025.8 969.858 1027.4 968.319 1027.82C966.779 1028.25 965.186 1027.36 964.758 1025.81C964.703 1025.61 961.819 1015.16 961.818 997.784C961.818 989.104 962.54 978.691 964.7 966.984C968.082 948.891 981.266 924.025 993.602 903.318C998.536 895.051 1003.3 887.558 1007.29 881.465C997.702 889.185 985.415 899.598 977.324 908.371C973.832 912.131 969.387 919.211 964.91 927.531C958.164 940.051 951.19 955.465 945.918 967.731C943.28 973.865 941.067 979.211 939.515 983.024C937.963 986.838 937.076 989.091 937.074 989.105C936.491 990.585 934.812 991.318 933.324 990.745C931.836 990.158 931.104 988.478 931.687 986.984C931.699 986.958 938.088 970.665 946.414 952.251C950.578 943.051 955.223 933.318 959.816 924.785C964.428 916.251 968.911 908.971 973.074 904.451C988.722 887.518 1018.05 865.758 1018.12 865.691L1032.69 854.851L1022.2 869.678C1022.2 869.691 1019.36 873.704 1014.98 880.291Z" fill="#0E1117"/>
<path d="M955.928 837.958C956.808 839.291 956.439 841.078 955.107 841.958L851.787 910.105C850.453 910.985 848.66 910.611 847.78 909.278C846.9 907.945 847.268 906.158 848.601 905.278L951.92 837.131C953.255 836.251 955.049 836.625 955.928 837.958Z" fill="#0E1117"/>
<path d="M963.467 818.252C963.432 818.265 947.364 824.358 928.604 831.665C909.856 838.971 888.405 847.518 877.9 852.305C876.447 852.958 874.732 852.318 874.068 850.865C873.407 849.411 874.048 847.705 875.501 847.038C897.005 837.251 961.379 812.865 961.417 812.852C962.912 812.278 964.581 813.038 965.147 814.531C965.713 816.025 964.961 817.692 963.467 818.252Z" fill="#0E1117"/>
<path d="M648.691 389.652C647.819 379.185 654.893 377.518 663.025 377.465C663.023 377.465 663.019 377.452 663.019 377.452C663.777 377.438 664.545 377.452 665.317 377.465C665.356 377.465 665.392 377.465 665.431 377.465C669.976 377.585 674.04 379.425 679.064 380.705C681.575 381.358 684.325 381.852 687.493 381.918C690.663 381.998 694.251 381.638 698.436 380.558C698.485 380.545 698.525 380.532 698.575 380.518C700.545 380.025 702.384 379.585 704.103 379.198C704.905 379.025 705.604 378.905 706.353 378.758C707.232 378.571 708.149 378.385 708.959 378.238C709.833 378.091 710.607 377.998 711.405 377.891C711.981 377.811 712.596 377.718 713.132 377.652C713.915 377.572 714.611 377.545 715.315 377.505C715.675 377.478 716.089 377.425 716.429 377.425C716.425 377.425 716.417 377.438 716.412 377.438C721.204 377.331 724.125 378.331 725.8 380.371C725.8 380.371 730.005 385.825 727.455 392.518C725.628 397.318 717.647 406.918 705.212 411.291C705.215 411.291 705.219 411.291 705.223 411.291C704.799 411.438 704.335 411.505 703.904 411.638C702.247 412.145 700.579 412.638 698.833 412.958C696.633 413.345 694.368 413.558 692.055 413.558C689.821 413.558 687.56 413.358 685.297 413.065C684.663 412.985 684.031 412.878 683.396 412.771C681.628 412.491 679.88 412.118 678.144 411.678C677.612 411.545 677.073 411.438 676.548 411.291C674.443 410.691 672.385 409.998 670.395 409.211C669.752 408.958 669.144 408.678 668.517 408.398C667.148 407.812 665.828 407.185 664.551 406.518C663.833 406.145 663.117 405.772 662.435 405.385C661.084 404.598 659.821 403.785 658.624 402.932C657.907 402.425 657.241 401.905 656.588 401.371C655.811 400.745 655.011 400.118 654.333 399.465C654.361 399.465 654.397 399.451 654.427 399.438C651.161 396.305 648.964 392.945 648.691 389.652Z" fill="#772731"/>
<path d="M756.387 562.758C719.156 541.491 688.731 528.558 673.17 523.491C672.359 516.265 671.666 508.345 671.054 500.198C670.966 498.998 670.891 497.785 670.807 496.571C674.938 497.438 679.154 498.251 683.488 499.011C683.488 499.011 687.627 499.678 691.358 498.758C765.415 478.918 799.176 438.225 813.002 414.891C819.656 404.385 821.414 397.411 821.414 397.411C822.626 393.171 823.762 388.638 824.858 383.958C825.163 382.665 825.451 381.318 825.747 379.985C826.552 376.371 827.324 372.665 828.06 368.851C828.326 367.478 828.591 366.118 828.847 364.731C829.74 359.878 830.587 354.918 831.37 349.825C831.406 349.585 831.447 349.358 831.483 349.118C832.34 343.478 833.119 337.705 833.839 331.851C833.868 331.611 833.907 331.385 833.936 331.145C833.931 331.131 833.927 331.131 833.923 331.131C838.271 295.398 840.006 256.545 838.663 223.411C838.248 221.025 821.411 125.758 770.459 106.425C769.659 124.851 761.404 148.531 728.275 162.305C668.427 187.171 590.938 172.825 553.627 200.571C516.32 228.318 516.894 252.225 515.36 264.665C513.827 277.105 517.747 311.065 510.574 322.678C505.6 330.745 501.64 332.358 495.974 329.025C493.254 327.425 490.174 324.785 486.347 320.985C476.56 311.305 479.4 306.665 472.774 292.025C471.387 288.945 469.72 285.585 467.267 281.465C457.974 279.411 448.52 282.785 444 301.131C431.84 350.465 474.12 381.265 499.88 371.451C501.52 370.825 502.84 369.878 503.974 368.758C507.347 382.931 511.094 396.118 515.174 407.491C515.174 407.491 521.094 418.291 536.36 432.745C536.614 449.625 536.414 463.505 535.494 473.798C534.027 490.091 531.28 505.505 527.027 530.145L364.96 576.691C362.12 577.158 359.56 578.145 357.16 579.398C357.134 579.398 357.08 579.318 357.054 579.331C354.96 580.651 339.6 585.105 317.174 594.358C292.654 535.598 336.24 510.571 354.64 491.918C375.214 471.065 380.76 442.225 368.987 395.478C351.774 327.091 369.947 279.451 409.174 224.491C428.574 197.291 436.494 161.078 439.334 143.731C439.347 129.571 440.227 117.371 441.854 108.811C448.4 74.2913 473.147 58.0248 478.947 56.1181C484.747 54.1981 495.827 21.7713 520.72 13.158C607.915 -17.0287 737.043 12.0246 762.06 27.8246V27.7981C762.06 27.7981 820.536 42.718 844.452 87.6913C864.272 124.945 855.19 240.638 851.496 279.198C851.819 330.385 841.715 385.038 839.131 401.465C834.767 429.211 858.204 466.958 851.507 527.745C846.924 569.358 826.099 590.865 813.408 600.291C785.606 576.718 756.387 562.758 756.387 562.758Z" fill="#2C1519"/>
<path d="M1428.53 768.305C1428.47 768.331 1404.31 784.651 1389.85 792.305C1379.91 797.545 1369.07 801.425 1363.07 803.411C1366 807.825 1369.34 813.051 1372.73 818.678C1373.57 818.345 1376.97 816.971 1382.14 814.878C1388.07 812.465 1396.07 809.171 1404.4 805.691C1412.22 802.425 1421.09 796.345 1427.89 791.091C1431.29 788.478 1434.19 786.065 1436.23 784.305C1438.26 782.558 1439.42 781.491 1439.42 781.491C1440.87 780.158 1443.11 780.251 1444.45 781.691C1445.78 783.131 1445.69 785.385 1444.24 786.718C1444.07 786.825 1424.77 804.798 1407.15 812.251C1393.16 818.105 1380.21 823.345 1376.32 824.905C1379.51 830.465 1382.51 836.158 1385.23 841.905C1393.83 839.531 1406.36 834.585 1417.12 829.985C1423.34 827.331 1429.01 824.785 1433.12 822.918C1437.24 821.038 1439.77 819.838 1439.78 819.838C1441.55 818.998 1443.67 819.758 1444.51 821.531C1445.35 823.305 1444.6 825.425 1442.82 826.265H1442.82C1442.8 826.278 1432.49 831.158 1419.91 836.531C1409.34 841.025 1397.48 845.718 1388.25 848.358C1391.8 856.865 1394.29 864.918 1394.32 871.891L1394.31 872.211C1394.25 874.185 1392.61 875.718 1390.65 875.665C1388.69 875.611 1387.14 873.971 1387.2 871.998V871.891C1387.23 866.398 1384.91 858.451 1381.24 849.985C1381.17 849.838 1381.09 849.691 1381.03 849.545C1379.95 849.118 1379.07 848.238 1378.82 847.025C1378.68 846.385 1378.78 845.771 1378.98 845.185C1373.6 833.785 1366.52 821.825 1360.4 812.318C1358.36 809.158 1356.52 806.398 1354.82 803.891C1354.65 803.705 1354.52 803.491 1354.39 803.265C1353.37 801.758 1352.32 800.225 1351.5 799.038C1349.23 795.785 1347.86 793.918 1347.86 793.918C1346.7 792.331 1347.04 790.105 1348.62 788.945C1350.2 787.785 1352.43 788.118 1353.59 789.705H1353.59C1353.61 789.731 1355.74 792.638 1358.93 797.291C1359.02 797.265 1359.05 797.251 1359.13 797.225C1364.37 795.545 1376.26 791.438 1386.53 786.011C1393.4 782.385 1402.97 776.451 1410.74 771.465C1418.53 766.465 1424.54 762.411 1424.55 762.398C1425.78 761.571 1427.34 761.625 1428.5 762.385C1428.79 762.571 1429.02 762.838 1429.24 763.118C1429.32 763.211 1429.42 763.265 1429.49 763.358C1430.59 764.985 1430.16 767.198 1428.53 768.305Z" fill="#B9664E"/>
<path d="M1312.98 792.105C1312.97 792.118 1311.51 798.038 1309.7 805.465C1307.89 812.891 1305.74 821.825 1304.39 827.771C1303.12 833.251 1302.67 841.798 1300.73 850.345C1298.79 858.865 1295.23 867.785 1287.07 873.571C1285.46 874.705 1283.25 874.318 1282.11 872.718C1280.98 871.105 1281.36 868.891 1282.96 867.758C1288.98 863.531 1292.01 856.585 1293.8 848.758C1295.59 840.958 1296 832.678 1297.45 826.198C1300.18 814.158 1306.07 790.398 1306.07 790.385C1306.53 788.531 1308.38 787.398 1310.25 787.785C1310.29 787.798 1310.33 787.785 1310.38 787.798C1311.76 788.131 1312.72 789.251 1312.99 790.545C1313.09 791.051 1313.11 791.571 1312.98 792.105Z" fill="#B9664E"/>
<path d="M521.12 2808.42C538.707 2822.12 563.64 2839.97 594.081 2857.61C594.081 2857.61 621.024 2862.65 605.871 2882.89C590.719 2903.08 444.187 2906.46 378.533 2849.18L375.147 2892.72C375.147 2892.72 352.253 2896.36 351.92 2886.28C351.64 2878 344.307 2830.69 348.32 2780.38C360.587 2782.06 402.653 2807.12 402.653 2807.12C458.227 2832.33 521.107 2808.42 521.12 2808.42Z" fill="#151627"/>
<path d="M876.222 2808.42C893.811 2822.12 918.739 2839.97 949.184 2857.61C949.184 2857.61 976.127 2862.65 960.974 2882.89C945.822 2903.08 799.288 2906.46 733.636 2849.18L730.254 2892.72C730.254 2892.72 707.362 2896.36 707.024 2886.28C706.744 2878 699.41 2830.69 703.42 2780.38C715.694 2782.06 757.756 2807.12 757.756 2807.12C813.327 2832.33 876.211 2808.42 876.222 2808.42Z" fill="#151627"/>
<path d="M625.728 530.785C600.864 531.438 558.8 497.318 535.48 473.971C535.48 473.918 535.494 473.851 535.494 473.798C536.414 463.505 536.614 449.625 536.36 432.745C558.32 453.518 599.646 481.824 670.807 496.571C670.891 497.784 670.966 498.998 671.054 500.198C671.096 500.758 671.127 501.331 671.171 501.891C663.667 513.198 648.663 530.185 625.728 530.785Z" fill="#EA8A62"/>
<path d="M500.373 358.451C495.133 367.758 476.933 364.851 469.987 349.025C463.053 333.185 454.76 329.851 455.893 311.078C455.893 311.078 458.147 293.278 472.773 292.025C479.4 306.665 476.56 311.305 486.347 320.985C490.173 324.785 493.253 327.425 495.973 329.025C497.533 338.331 499.28 347.478 501.173 356.331C500.947 357.171 500.68 357.891 500.373 358.451Z" fill="#EA8469"/>
<path d="M638.815 376.585C639.825 407.345 615.704 433.118 584.936 434.131C554.173 435.145 528.4 411.011 527.4 380.251C526.387 349.491 550.507 323.718 581.271 322.705C612.04 321.705 637.801 345.825 638.815 376.585Z" fill="#F7977E"/>
<path d="M797.264 427.145C766.497 428.158 740.735 404.025 739.723 373.265C739.101 354.411 747.955 337.451 761.969 326.904C762.196 326.918 762.413 326.985 762.641 326.985C765.944 326.878 768.857 324.744 770.899 321.424C777.777 318.051 785.441 315.998 793.599 315.731C809.184 315.211 823.472 321.158 833.923 331.131C833.927 331.131 833.931 331.131 833.936 331.145C833.907 331.385 833.868 331.611 833.839 331.851C833.12 337.705 832.339 343.478 831.483 349.118C831.447 349.358 831.405 349.584 831.369 349.824C830.588 354.918 829.739 359.878 828.847 364.731C828.591 366.118 828.325 367.478 828.06 368.851C827.324 372.665 826.551 376.371 825.747 379.985C825.451 381.318 825.163 382.664 824.857 383.958C823.761 388.638 822.625 393.171 821.413 397.411C821.413 397.411 819.656 404.384 813.001 414.891C810.789 418.371 808.036 422.265 804.624 426.411C802.216 426.798 799.769 427.065 797.264 427.145Z" fill="#F7977E"/>
<path d="M719.51 355.745C714.155 362.598 705.247 365.851 705 366.038C703.06 366.798 700.864 365.851 700.098 363.905C699.33 361.971 700.28 359.772 702.22 359.012L702.747 358.785C704.036 358.225 707.465 356.571 710.329 354.305C711.763 353.171 713.04 351.891 713.875 350.638C714.716 349.371 715.105 348.225 715.108 347.091L714.9 345.652H714.899C713.566 340.972 711.145 337.478 708.395 333.225C705.671 329.011 702.711 324.012 701.368 316.932C700.637 313.105 700.173 309.225 700.175 305.025C700.173 297.638 701.597 289.331 705.177 278.291C705.82 276.305 707.952 275.225 709.938 275.865C711.923 276.505 713.011 278.638 712.367 280.625C708.943 291.198 707.735 298.625 707.733 305.025C707.733 308.678 708.128 312.025 708.792 315.518C709.906 321.252 712.131 325.065 714.75 329.145C717.342 333.185 720.42 337.478 722.167 343.571C722.504 344.758 722.667 345.945 722.666 347.091C722.664 350.491 721.274 353.438 719.51 355.745Z" fill="#D5735D"/>
<path d="M744.856 241.198C757.433 235.665 771.159 236.371 783.213 242.038C787.011 243.758 790.416 246.091 793.651 248.504C794.352 249.024 794.609 249.985 794.217 250.798C793.771 251.731 792.659 252.118 791.732 251.665C779.505 245.078 762.961 243.998 751.424 252.024C748.263 254.531 743.376 253.345 741.732 249.651C740.259 246.451 741.657 242.665 744.856 241.198Z" fill="#2C1519"/>
<path d="M646.017 260.518C635.691 254.505 621.536 253.291 610.206 257.851C606.119 259.278 602.358 261.638 598.672 264.105C597.242 265.065 595.291 264.798 594.159 263.451C592.941 262.011 593.127 259.851 594.577 258.625C609.841 244.598 632.644 240.611 651.823 249.238C659.798 252.905 653.609 264.865 646.017 260.518Z" fill="#2C1519"/>
<path d="M762.642 326.985C762.414 326.985 762.196 326.918 761.97 326.905C755.728 326.585 750.524 319.105 750.214 309.678C749.894 299.918 754.936 291.825 761.479 291.611C768.02 291.385 773.586 299.131 773.907 308.905C774.066 313.745 772.903 318.158 770.899 321.425C768.858 324.745 765.944 326.878 762.642 326.985Z" fill="#2C1519"/>
<path d="M613.044 314.198C612.723 304.425 617.767 296.331 624.308 296.118C630.849 295.905 636.415 303.651 636.736 313.411C637.057 323.185 632.013 331.278 625.472 331.491C618.929 331.705 613.365 323.958 613.044 314.198Z" fill="#2C1519"/>
<path d="M187.813 1506.32C182.813 1517.1 176.6 1531.9 174.72 1542.48C174.72 1542.48 165.84 1593.8 169.04 1621.7H25.6269C11.4802 1621.7 0.000206507 1610.22 0.000206507 1596.08V1260.46C0.000206507 1246.32 11.4802 1234.84 25.6269 1234.84H153.72C159.827 1331.14 166.494 1491.69 177.72 1502.33C177.72 1502.33 181.12 1504.24 187.813 1506.32Z" fill="#572E2C"/>
<path d="M282.187 1564.72C282.187 1561.89 303.813 1590.12 307.573 1581.65C311.347 1573.18 292.534 1546.84 287.827 1528.97C285.454 1519.94 280.68 1511.41 276.294 1504.8C279.4 1504.02 282.507 1503.26 285.76 1502.33L295.333 1234.84H513.24C527.373 1234.84 538.854 1246.32 538.854 1260.46V1596.08C538.854 1610.22 527.373 1621.7 513.24 1621.7H281.84C284.253 1600.12 282.187 1566.82 282.187 1564.72Z" fill="#572E2C"/>
<path d="M678.145 411.678C677.613 411.545 677.074 411.438 676.549 411.291C674.442 410.691 672.387 409.998 670.395 409.211C669.752 408.958 669.144 408.678 668.518 408.398C667.148 407.812 665.828 407.185 664.551 406.518C663.834 406.145 663.118 405.772 662.435 405.385C661.084 404.598 659.822 403.785 658.624 402.932C657.908 402.425 657.242 401.905 656.589 401.371C655.811 400.745 655.011 400.118 654.334 399.465C654.362 399.465 654.398 399.451 654.426 399.438C663.258 396.585 690.002 390.211 705.212 411.291C705.215 411.291 705.219 411.291 705.223 411.291C704.799 411.438 704.335 411.505 703.905 411.638C702.247 412.145 700.579 412.638 698.834 412.958C696.632 413.345 694.369 413.558 692.055 413.558C689.822 413.558 687.561 413.358 685.298 413.065C684.663 412.985 684.031 412.878 683.396 412.771C681.63 412.491 679.882 412.118 678.145 411.678Z" fill="#D34959"/>
<path d="M689.136 392.518C674.167 392.252 665.723 382.758 663.025 377.465C663.023 377.465 663.02 377.452 663.019 377.452C663.779 377.438 664.545 377.452 665.319 377.465C665.356 377.465 665.393 377.465 665.431 377.465C669.975 377.585 674.04 379.425 679.064 380.705C681.575 381.358 684.325 381.852 687.493 381.918C690.663 381.998 694.251 381.638 698.436 380.558C698.485 380.545 698.525 380.532 698.575 380.518C700.545 380.025 702.384 379.585 704.103 379.198C704.905 379.025 705.604 378.905 706.353 378.758C707.232 378.572 708.149 378.385 708.959 378.238C709.833 378.092 710.607 377.998 711.405 377.892C711.98 377.812 712.596 377.718 713.132 377.652C713.915 377.572 714.611 377.545 715.313 377.505C715.675 377.478 716.089 377.425 716.429 377.425C716.425 377.425 716.417 377.438 716.412 377.438C712.591 382.318 702.804 392.758 689.136 392.518Z" fill="#F6DADE"/>
</g>
<defs>
<clipPath id="clip0_63_62">
<rect width="1465.38" height="2896.25" fill="white"/>
</clipPath>
</defs>
</svg>
